<svg xmlns="http://www.w3.org/2000/svg" viewBox="4 4 16 16">
  <path d="m 6 8 c 1.1 0 2 -0.9 2 -2 s -0.9 -2 -2 -2 s -2 0.9 -2 2 s 0.9 2 2 2 z m 6 12 c 1.1 0 2 -0.9 2 -2 s -0.9 -2 -2 -2 s -2 0.9 -2 2 s 0.9 2 2 2 z m -6 0 c 1.1 0 2 -0.9 2 -2 s -0.9 -2 -2 -2 s -2 0.9 -2 2 s 0.9 2 2 2 z m 0 -6 c 1.1 0 2 -0.9 2 -2 s -0.9 -2 -2 -2 s -2 0.9 -2 2 s 0.9 2 2 2 z m 6 0 c 1.1 0 2 -0.9 2 -2 s -0.9 -2 -2 -2 s -2 0.9 -2 2 s 0.9 2 2 2 z m 4 -8 c 0 1.1 0.9 2 2 2 s 2 -0.9 2 -2 s -0.9 -2 -2 -2 s -2 0.9 -2 2 z m -4 2 c 1.1 0 2 -0.9 2 -2 s -0.9 -2 -2 -2 s -2 0.9 -2 2 s 0.9 2 2 2 z m 6 6 c 1.1 0 2 -0.9 2 -2 s -0.9 -2 -2 -2 s -2 0.9 -2 2 s 0.9 2 2 2 z m 0 6 c 1.1 0 2 -0.9 2 -2 s -0.9 -2 -2 -2 s -2 0.9 -2 2 s 0.9 2 2 2 z" fill="#3c4043"/>
</svg>